# xmcd CD database file
#
# Track frame offsets:
#	150
#	19100
#	51087
#	77822
#	109087
#	140672
#	158655
#	188527
#	229122
#	250502
#
# Disc length: 3802 seconds
#
# Revision: 0
# Processed by: cddbd v1.5.2PL0 Copyright (c) Steve Scherf et al.
# Submitted via: CDex 1.51
#
DISCID=740ed80a
DTITLE=Crawford, Davell - The B-3 and me
DYEAR=1998
DGENRE=Jazz
TTITLE0=Ooh Wee Shugar
TTITLE1=Struttin'
TTITLE2=The Cat
TTITLE3=Stormy Weather
TTITLE4=House That Jack Bult
TTITLE5=Please Don't Talk About Me Whem I'm Gone
TTITLE6=Uptown
TTITLE7=I Can't Stop Loving You
TTITLE8=I Can't Give You Anything But Love
TTITLE9=Hallelujah I Love Her So
EXTD=YEAR: 1998
EXTT0=
EXTT1=
EXTT2=
EXTT3=
EXTT4=
EXTT5=
EXTT6=
EXTT7=
EXTT8=
EXTT9=
PLAYORDER=
